<?xml version="1.0" encoding="utf-8"?>
<!-- Generator: Adobe Illustrator 19.0.0, SVG Export Plug-In . SVG Version: 6.00 Build 0)  -->
<svg version="1.1" id="Layer_1" xmlns="http://www.w3.org/2000/svg" xmlns:xlink="http://www.w3.org/1999/xlink" x="0px" y="0px"
	 viewBox="0 0 170.1 155.9" style="enable-background:new 0 0 170.1 155.9;" xml:space="preserve">
<style type="text/css">
	.st0{fill:#43525A;}
	.st1{fill-rule:evenodd;clip-rule:evenodd;fill:#43525A;}
</style>
<g>
	<polygon class="st1" points="85,70.8 42.5,42.4 42.5,70.8 48.4,74.7 48.4,54.9 85,79.3 121.7,54.9 121.7,74.7 127.6,70.8 
		127.6,42.4 	"/>
	<polygon class="st1" points="85,14.1 47.2,39.3 53.1,43.2 85,22 117,43.2 122.9,39.3 	"/>
	<path class="st1" d="M121.7,73.2l1.2,0.8l-1.2,0.8V73.2z M48.4,74.8L47.2,74l1.2-0.8V74.8z M85,99.2L54.3,78.7v-7.9L85,91.4
		l30.7-20.5v7.9L85,99.2z"/>
</g>
</svg>
